<svg xmlns="http://www.w3.org/2000/svg" xmlns:xlink="http://www.w3.org/1999/xlink" width="292.16" height="127.817" viewBox="0 0 292.16 127.817">
  <defs>
    <filter id="Subtraction_2" x="0" y="0" width="121.286" height="127.817" filterUnits="userSpaceOnUse">
      <feOffset dy="3" input="SourceAlpha"/>
      <feGaussianBlur stdDeviation="3" result="blur"/>
      <feFlood flood-opacity="0.161"/>
      <feComposite operator="in" in2="blur"/>
      <feComposite in="SourceGraphic"/>
    </filter>
    <filter id="Subtraction_2-2" x="0" y="0" width="121.286" height="127.817" filterUnits="userSpaceOnUse">
      <feOffset dy="1" input="SourceAlpha"/>
      <feGaussianBlur stdDeviation="1" result="blur-2"/>
      <feFlood flood-opacity="0.071" result="color"/>
      <feComposite operator="out" in="SourceGraphic" in2="blur-2"/>
      <feComposite operator="in" in="color"/>
      <feComposite operator="in" in2="SourceGraphic"/>
    </filter>
  </defs>
  <g id="Group_276" data-name="Group 276" transform="translate(-74.227 -4411.091)">
    <g id="Group_40" data-name="Group 40" transform="translate(80 4417.091)">
      <g data-type="innerShadowGroup">
        <g transform="matrix(1, 0, 0, 1, -5.77, -6)" filter="url(#Subtraction_2)">
          <path id="Subtraction_2-3" data-name="Subtraction 2" d="M98.3,109.817H42.534c-.587,0-3.567-.074-4.629-1.536-1.172-1.612-.012-4.954,0-4.988L47.77,70.787c.024-.059,2.327-5.876.349-8.139-.795-.909-2.354-1.369-4.635-1.369a21.576,21.576,0,0,0-3.719.352L6.853,68.705a21.253,21.253,0,0,1-3.163.28,6.437,6.437,0,0,1-2.134-.28A2.535,2.535,0,0,1,0,66.182V41.855A12.558,12.558,0,0,1,.9,38.725a8.9,8.9,0,0,1,1.878-2.281L41.982,3.557C42.021,3.521,45.9,0,49.595,0s7.295,3.521,7.33,3.557l42.67,35.53a15.973,15.973,0,0,1,2.587,3.216c1.026,1.765,1.092,5.41,1.093,5.447v55.544c0,.034.193,3.376-1.058,4.988C101.082,109.743,98.753,109.817,98.3,109.817ZM53.727,39.268a2,2,0,0,0-2,2v7.5a2,2,0,0,0,2,2h7.5a2,2,0,0,0,2-2v-7.5a2,2,0,0,0-2-2Zm-14.148,0a2,2,0,0,0-2,2v7.5a2,2,0,0,0,2,2h7.5a2,2,0,0,0,2-2v-7.5a2,2,0,0,0-2-2ZM53.727,26a2,2,0,0,0-2,2v7.5a2,2,0,0,0,2,2h7.5a2,2,0,0,0,2-2V28a2,2,0,0,0-2-2ZM39.579,26a2,2,0,0,0-2,2v7.5a2,2,0,0,0,2,2h7.5a2,2,0,0,0,2-2V28a2,2,0,0,0-2-2Z" transform="translate(9 6)" fill="#70c9f2"/>
        </g>
        <g transform="matrix(1, 0, 0, 1, -5.77, -6)" filter="url(#Subtraction_2-2)">
          <path id="Subtraction_2-4" data-name="Subtraction 2" d="M98.3,109.817H42.534c-.587,0-3.567-.074-4.629-1.536-1.172-1.612-.012-4.954,0-4.988L47.77,70.787c.024-.059,2.327-5.876.349-8.139-.795-.909-2.354-1.369-4.635-1.369a21.576,21.576,0,0,0-3.719.352L6.853,68.705a21.253,21.253,0,0,1-3.163.28,6.437,6.437,0,0,1-2.134-.28A2.535,2.535,0,0,1,0,66.182V41.855A12.558,12.558,0,0,1,.9,38.725a8.9,8.9,0,0,1,1.878-2.281L41.982,3.557C42.021,3.521,45.9,0,49.595,0s7.295,3.521,7.33,3.557l42.67,35.53a15.973,15.973,0,0,1,2.587,3.216c1.026,1.765,1.092,5.41,1.093,5.447v55.544c0,.034.193,3.376-1.058,4.988C101.082,109.743,98.753,109.817,98.3,109.817ZM53.727,39.268a2,2,0,0,0-2,2v7.5a2,2,0,0,0,2,2h7.5a2,2,0,0,0,2-2v-7.5a2,2,0,0,0-2-2Zm-14.148,0a2,2,0,0,0-2,2v7.5a2,2,0,0,0,2,2h7.5a2,2,0,0,0,2-2v-7.5a2,2,0,0,0-2-2ZM53.727,26a2,2,0,0,0-2,2v7.5a2,2,0,0,0,2,2h7.5a2,2,0,0,0,2-2V28a2,2,0,0,0-2-2ZM39.579,26a2,2,0,0,0-2,2v7.5a2,2,0,0,0,2,2h7.5a2,2,0,0,0,2-2V28a2,2,0,0,0-2-2Z" transform="translate(9 6)" fill="#fff"/>
        </g>
      </g>
      <path id="Subtraction_1" data-name="Subtraction 1" d="M28.747,41.43a26.916,26.916,0,0,1-6.588-.918,51.955,51.955,0,0,1-5.3-2.791A40.492,40.492,0,0,1,7.409,30.19a33.978,33.978,0,0,1-5.741-9.853,36.812,36.812,0,0,1-1.6-5.112,7.262,7.262,0,0,1,.6-4.11,5.913,5.913,0,0,1,3.3-2.052L38.087.634A19.68,19.68,0,0,1,42.645,0c1.843,0,3.145.409,3.871,1.215,1.089,1.209,1.031,3.531.79,5.266a22.763,22.763,0,0,1-.79,3.512L40.064,32.258a18.325,18.325,0,0,1-1.484,3.353,11.6,11.6,0,0,1-4.842,4.9A11.977,11.977,0,0,1,28.747,41.43ZM6.944,13.472a2.4,2.4,0,0,0-.887.184,1.748,1.748,0,0,0-1.027.984,3.765,3.765,0,0,0,.213,2.5A32.511,32.511,0,0,0,11.87,28.422c4.612,4.855,11.959,8.336,12.033,8.371a5.033,5.033,0,0,0,1.947.478,1.886,1.886,0,0,0,1.831-1.059c.977-1.954-1.6-3.416-1.627-3.43a39.952,39.952,0,0,1-10.231-7.267,39.746,39.746,0,0,1-6.8-10.522A2.549,2.549,0,0,0,6.944,13.472Zm8.577-2.226a2.388,2.388,0,0,0-1.031.25,1.768,1.768,0,0,0-1,1.1,3.527,3.527,0,0,0,.462,2.392,41.632,41.632,0,0,0,5.411,7.334A37.369,37.369,0,0,0,26.3,27.773a5.175,5.175,0,0,0,2.154.616,1.729,1.729,0,0,0,1.424-.616c1.105-1.37-.963-3.113-.984-3.13a26.49,26.49,0,0,1-6.26-4.785,35.1,35.1,0,0,1-4.829-7.11A3,3,0,0,0,15.522,11.246ZM33.568,7a8.329,8.329,0,0,0-1.665.184L23.725,9.212c-.015,0-1.465.363-1.833,1.2a3.2,3.2,0,0,0,.344,2.2,24.119,24.119,0,0,0,2.941,3.663,54.28,54.28,0,0,0,4.489,3.973,4.246,4.246,0,0,0,1.906.7,1.267,1.267,0,0,0,.444-.074c.909-.34,1.327-1.983,1.331-2l2.064-6.845c.011-.031,1.1-3.107.236-4.306A2.447,2.447,0,0,0,33.568,7Z" transform="translate(0 65.16)" fill="#ffc808"/>
    </g>
    <path id="Path_9541" data-name="Path 9541" d="M18.713-6.281H7.138V2.39h13.53V6.3H2.24V-21.883H20.532v3.949H7.138v7.781H18.713ZM35.94.61A2.132,2.132,0,0,0,34.9-1.307a11.014,11.014,0,0,0-3.436-1.161,17.662,17.662,0,0,1-4.007-1.278q-3.523-1.7-3.523-4.936a5.575,5.575,0,0,1,2.284-4.529,9.03,9.03,0,0,1,5.807-1.82A9.4,9.4,0,0,1,38.1-13.172a5.9,5.9,0,0,1,2.313,4.82h-4.7A2.9,2.9,0,0,0,34.7-10.608a3.857,3.857,0,0,0-2.671-.9,4.168,4.168,0,0,0-2.526.716,2.258,2.258,0,0,0-.978,1.916,1.907,1.907,0,0,0,.91,1.684,12.511,12.511,0,0,0,3.678,1.21A17.41,17.41,0,0,1,37.46-4.53,6.154,6.154,0,0,1,39.8-2.507,5.158,5.158,0,0,1,40.567.358a5.457,5.457,0,0,1-2.342,4.578,9.987,9.987,0,0,1-6.136,1.752A10.83,10.83,0,0,1,27.5,5.759,7.55,7.55,0,0,1,24.365,3.2,6.048,6.048,0,0,1,23.242-.3h4.568a3.314,3.314,0,0,0,1.258,2.565,4.889,4.889,0,0,0,3.078.9,4.756,4.756,0,0,0,2.826-.707A2.187,2.187,0,0,0,35.94.61ZM50.555-19.734v5.091h3.7v3.484h-3.7V.532a2.575,2.575,0,0,0,.474,1.732,2.2,2.2,0,0,0,1.694.532A7.246,7.246,0,0,0,54.368,2.6V6.242a11.585,11.585,0,0,1-3.1.445q-5.42,0-5.42-5.981V-11.159H42.406v-3.484h3.446v-5.091ZM70.357,6.3a7.26,7.26,0,0,1-.542-1.955,7.322,7.322,0,0,1-5.5,2.342,7.389,7.389,0,0,1-5.149-1.8A5.76,5.76,0,0,1,57.175.435,5.947,5.947,0,0,1,59.662-4.7q2.487-1.791,7.114-1.791H69.66V-7.869a3.669,3.669,0,0,0-.91-2.6,3.606,3.606,0,0,0-2.768-.978,4.143,4.143,0,0,0-2.633.8A2.486,2.486,0,0,0,62.324-8.6h-4.7a5.22,5.22,0,0,1,1.142-3.223,7.608,7.608,0,0,1,3.107-2.352,10.913,10.913,0,0,1,4.384-.852,8.788,8.788,0,0,1,5.865,1.849,6.592,6.592,0,0,1,2.245,5.2V1.461a10.705,10.705,0,0,0,.794,4.51V6.3ZM65.188,2.913a5.351,5.351,0,0,0,2.623-.677A4.526,4.526,0,0,0,69.66.416V-3.533H67.124a6.934,6.934,0,0,0-3.929.91A2.947,2.947,0,0,0,61.878-.048a2.749,2.749,0,0,0,.9,2.158A3.485,3.485,0,0,0,65.188,2.913Zm20-22.647v5.091h3.7v3.484h-3.7V.532a2.575,2.575,0,0,0,.474,1.732,2.2,2.2,0,0,0,1.694.532A7.246,7.246,0,0,0,89,2.6V6.242a11.584,11.584,0,0,1-3.1.445q-5.42,0-5.42-5.981V-11.159H77.035v-3.484H80.48v-5.091ZM101.7,6.688a9.731,9.731,0,0,1-7.249-2.816,10.217,10.217,0,0,1-2.778-7.5V-4.21a12.567,12.567,0,0,1,1.21-5.6,9.208,9.208,0,0,1,3.4-3.842,8.981,8.981,0,0,1,4.878-1.374,8.22,8.22,0,0,1,6.61,2.729Q110.1-9.572,110.1-4.578v1.9H96.411a6.29,6.29,0,0,0,1.732,4.1,5.2,5.2,0,0,0,3.823,1.51A6.369,6.369,0,0,0,107.231.319l2.536,2.42a8.468,8.468,0,0,1-3.358,2.913A10.514,10.514,0,0,1,101.7,6.688Zm-.561-17.944A3.961,3.961,0,0,0,98.008-9.9a7.023,7.023,0,0,0-1.52,3.775h8.962v-.348a5.717,5.717,0,0,0-1.258-3.571A3.931,3.931,0,0,0,101.134-11.256Zm17.963,7.1V6.3h-4.9V-21.883h10.782a10.9,10.9,0,0,1,7.5,2.461,8.275,8.275,0,0,1,2.778,6.511,8,8,0,0,1-2.72,6.453q-2.72,2.306-7.617,2.306Zm0-3.949h5.884a5.8,5.8,0,0,0,3.988-1.229,4.517,4.517,0,0,0,1.374-3.552,4.874,4.874,0,0,0-1.394-3.649,5.372,5.372,0,0,0-3.833-1.4H119.1Zm24.99,14.4h-4.7V-14.643h4.7Zm-4.994-26.383a2.5,2.5,0,0,1,.687-1.8,2.6,2.6,0,0,1,1.965-.716,2.628,2.628,0,0,1,1.974.716,2.477,2.477,0,0,1,.7,1.8,2.42,2.42,0,0,1-.7,1.771,2.649,2.649,0,0,1-1.974.707,2.616,2.616,0,0,1-1.965-.707A2.438,2.438,0,0,1,139.093-20.083ZM158.43,6.688a9.731,9.731,0,0,1-7.249-2.816,10.217,10.217,0,0,1-2.778-7.5V-4.21a12.567,12.567,0,0,1,1.21-5.6,9.208,9.208,0,0,1,3.4-3.842,8.981,8.981,0,0,1,4.878-1.374A8.22,8.22,0,0,1,164.5-12.3q2.333,2.729,2.333,7.723v1.9H153.146a6.29,6.29,0,0,0,1.732,4.1,5.2,5.2,0,0,0,3.823,1.51A6.369,6.369,0,0,0,163.966.319l2.536,2.42a8.468,8.468,0,0,1-3.358,2.913A10.514,10.514,0,0,1,158.43,6.688Zm-.561-17.944A3.961,3.961,0,0,0,154.743-9.9a7.023,7.023,0,0,0-1.52,3.775h8.962v-.348a5.717,5.717,0,0,0-1.258-3.571A3.931,3.931,0,0,0,157.869-11.256Z" transform="translate(199.557 4487.433)" fill="#fff"/>
    <text id="As_Easy_As_Pie" data-name="As Easy As Pie" transform="translate(201.797 4521.267)" fill="#fff" font-size="18" font-family="Roboto-Regular, Roboto"><tspan x="0" y="0">As Easy As Pie</tspan></text>
  </g>
</svg>
