<svg xmlns="http://www.w3.org/2000/svg" xmlns:xlink="http://www.w3.org/1999/xlink" width="177.297" height="78.863" viewBox="0 0 177.297 78.863">
  <defs>
    <filter id="Subtraction_2" x="0" y="0" width="75.243" height="78.863" filterUnits="userSpaceOnUse">
      <feOffset dy="3" input="SourceAlpha"/>
      <feGaussianBlur stdDeviation="3" result="blur"/>
      <feFlood flood-opacity="0.161"/>
      <feComposite operator="in" in2="blur"/>
      <feComposite in="SourceGraphic"/>
    </filter>
    <filter id="Subtraction_2-2" x="0" y="0" width="75.243" height="78.863" filterUnits="userSpaceOnUse">
      <feOffset dy="1" input="SourceAlpha"/>
      <feGaussianBlur stdDeviation="1" result="blur-2"/>
      <feFlood flood-opacity="0.071" result="color"/>
      <feComposite operator="out" in="SourceGraphic" in2="blur-2"/>
      <feComposite operator="in" in="color"/>
      <feComposite operator="in" in2="SourceGraphic"/>
    </filter>
  </defs>
  <g id="Group_273" data-name="Group 273" transform="translate(-72.193 -20.028)">
    <g id="Group_4" data-name="Group 4" transform="translate(79.404 26.028)">
      <g data-type="innerShadowGroup">
        <g transform="matrix(1, 0, 0, 1, -7.21, -6)" filter="url(#Subtraction_2)">
          <path id="Subtraction_2-3" data-name="Subtraction 2" d="M54.478,60.863h-30.9c-.325,0-1.977-.041-2.566-.851-.65-.894-.007-2.746,0-2.765l5.467-18.016c.013-.033,1.29-3.256.194-4.51a3.374,3.374,0,0,0-2.57-.759,11.952,11.952,0,0,0-2.06.2L3.8,38.077a11.715,11.715,0,0,1-1.753.156,3.567,3.567,0,0,1-1.183-.156,1.405,1.405,0,0,1-.86-1.4V23.2a7,7,0,0,1,.5-1.734A4.931,4.931,0,0,1,1.538,20.2L23.268,1.971C23.289,1.951,25.44,0,27.486,0S31.53,1.951,31.55,1.971L55.2,21.663a8.835,8.835,0,0,1,1.433,1.782,8.092,8.092,0,0,1,.606,3.019V57.247a5.084,5.084,0,0,1-.586,2.765A2.941,2.941,0,0,1,54.478,60.863Zm-23.809-39.1a2,2,0,0,0-2,2v2.371a2,2,0,0,0,2,2h2.371a2,2,0,0,0,2-2V23.764a2,2,0,0,0-2-2Zm-7.842,0a2,2,0,0,0-2,2v2.371a2,2,0,0,0,2,2H25.2a2,2,0,0,0,2-2V23.764a2,2,0,0,0-2-2Zm7.842-7.351a2,2,0,0,0-2,2v2.371a2,2,0,0,0,2,2h2.371a2,2,0,0,0,2-2V16.412a2,2,0,0,0-2-2Zm-7.842,0a2,2,0,0,0-2,2v2.371a2,2,0,0,0,2,2H25.2a2,2,0,0,0,2-2V16.412a2,2,0,0,0-2-2Z" transform="translate(9 6)" fill="#0f264d"/>
        </g>
        <g transform="matrix(1, 0, 0, 1, -7.21, -6)" filter="url(#Subtraction_2-2)">
          <path id="Subtraction_2-4" data-name="Subtraction 2" d="M54.478,60.863h-30.9c-.325,0-1.977-.041-2.566-.851-.65-.894-.007-2.746,0-2.765l5.467-18.016c.013-.033,1.29-3.256.194-4.51a3.374,3.374,0,0,0-2.57-.759,11.952,11.952,0,0,0-2.06.2L3.8,38.077a11.715,11.715,0,0,1-1.753.156,3.567,3.567,0,0,1-1.183-.156,1.405,1.405,0,0,1-.86-1.4V23.2a7,7,0,0,1,.5-1.734A4.931,4.931,0,0,1,1.538,20.2L23.268,1.971C23.289,1.951,25.44,0,27.486,0S31.53,1.951,31.55,1.971L55.2,21.663a8.835,8.835,0,0,1,1.433,1.782,8.092,8.092,0,0,1,.606,3.019V57.247a5.084,5.084,0,0,1-.586,2.765A2.941,2.941,0,0,1,54.478,60.863Zm-23.809-39.1a2,2,0,0,0-2,2v2.371a2,2,0,0,0,2,2h2.371a2,2,0,0,0,2-2V23.764a2,2,0,0,0-2-2Zm-7.842,0a2,2,0,0,0-2,2v2.371a2,2,0,0,0,2,2H25.2a2,2,0,0,0,2-2V23.764a2,2,0,0,0-2-2Zm7.842-7.351a2,2,0,0,0-2,2v2.371a2,2,0,0,0,2,2h2.371a2,2,0,0,0,2-2V16.412a2,2,0,0,0-2-2Zm-7.842,0a2,2,0,0,0-2,2v2.371a2,2,0,0,0,2,2H25.2a2,2,0,0,0,2-2V16.412a2,2,0,0,0-2-2Z" transform="translate(9 6)" fill="#fff"/>
        </g>
      </g>
      <path id="Subtraction_1" data-name="Subtraction 1" d="M15.932,22.961a14.917,14.917,0,0,1-3.651-.509,28.8,28.8,0,0,1-2.94-1.547,22.442,22.442,0,0,1-5.235-4.175A18.831,18.831,0,0,1,.924,11.271,20.4,20.4,0,0,1,.038,8.438,4.025,4.025,0,0,1,.37,6.16,3.277,3.277,0,0,1,2.2,5.023L21.109.352A10.907,10.907,0,0,1,23.635,0,2.812,2.812,0,0,1,25.78.674a3.9,3.9,0,0,1,.438,2.919,12.616,12.616,0,0,1-.438,1.946L22.2,17.878a10.156,10.156,0,0,1-.823,1.859A6.429,6.429,0,0,1,18.7,22.453,6.638,6.638,0,0,1,15.932,22.961ZM3.849,7.467a1.328,1.328,0,0,0-.492.1.969.969,0,0,0-.569.545A2.087,2.087,0,0,0,2.906,9.5a18.018,18.018,0,0,0,3.673,6.25,26.041,26.041,0,0,0,6.669,4.639,2.79,2.79,0,0,0,1.079.265,1.045,1.045,0,0,0,1.015-.587c.542-1.083-.887-1.893-.9-1.9a22.142,22.142,0,0,1-5.67-4.027A22.028,22.028,0,0,1,5,8.309,1.413,1.413,0,0,0,3.849,7.467ZM8.6,6.233a1.323,1.323,0,0,0-.572.139.98.98,0,0,0-.554.608A1.955,1.955,0,0,0,7.733,8.3a23.073,23.073,0,0,0,3,4.064,20.711,20.711,0,0,0,3.841,3.024,2.868,2.868,0,0,0,1.194.341.958.958,0,0,0,.789-.341c.613-.76-.534-1.725-.545-1.735a14.681,14.681,0,0,1-3.469-2.652A19.455,19.455,0,0,1,9.865,7.066,1.662,1.662,0,0,0,8.6,6.233Zm10-2.354a4.616,4.616,0,0,0-.923.1L13.149,5.105c-.008,0-.812.2-1.016.667a1.774,1.774,0,0,0,.191,1.22,13.367,13.367,0,0,0,1.63,2.03,30.083,30.083,0,0,0,2.488,2.2,2.353,2.353,0,0,0,1.056.387.7.7,0,0,0,.246-.041c.5-.188.735-1.1.737-1.108l1.144-3.794c.006-.017.611-1.722.131-2.387A1.356,1.356,0,0,0,18.6,3.879Z" transform="translate(0 36.113)" fill="#ffc808"/>
    </g>
    <path id="Path_9435" data-name="Path 9435" d="M12.107-12.826H5.173v5.194h8.1V-5.29H2.24V-22.17H13.2v2.365H5.173v4.661h6.933ZM22.425-8.7a1.277,1.277,0,0,0-.62-1.148,6.6,6.6,0,0,0-2.058-.7,10.579,10.579,0,0,1-2.4-.765,3.2,3.2,0,0,1-2.11-2.956A3.339,3.339,0,0,1,16.6-16.976a5.408,5.408,0,0,1,3.478-1.09,5.628,5.628,0,0,1,3.635,1.113A3.532,3.532,0,0,1,25.1-14.066H22.286a1.736,1.736,0,0,0-.6-1.351,2.31,2.31,0,0,0-1.6-.539,2.5,2.5,0,0,0-1.513.429,1.352,1.352,0,0,0-.585,1.148,1.142,1.142,0,0,0,.545,1.009,7.493,7.493,0,0,0,2.2.725,10.427,10.427,0,0,1,2.6.87,3.686,3.686,0,0,1,1.4,1.212A3.09,3.09,0,0,1,25.2-8.849a3.268,3.268,0,0,1-1.4,2.742,5.982,5.982,0,0,1-3.675,1.049,6.487,6.487,0,0,1-2.748-.557,4.522,4.522,0,0,1-1.878-1.53,3.622,3.622,0,0,1-.672-2.1h2.736a1.985,1.985,0,0,0,.754,1.536,2.928,2.928,0,0,0,1.843.539,2.849,2.849,0,0,0,1.693-.423A1.31,1.31,0,0,0,22.425-8.7Zm8.753-12.185v3.049h2.214v2.087H31.178v7a1.542,1.542,0,0,0,.284,1.038,1.317,1.317,0,0,0,1.014.319,4.34,4.34,0,0,0,.985-.116v2.18a6.939,6.939,0,0,1-1.855.267q-3.246,0-3.246-3.582v-7.107H26.3v-2.087h2.064v-3.049ZM43.039-5.29a4.348,4.348,0,0,1-.325-1.171,4.385,4.385,0,0,1-3.293,1.4,4.426,4.426,0,0,1-3.084-1.078A3.45,3.45,0,0,1,35.143-8.8a3.562,3.562,0,0,1,1.49-3.078,7.22,7.22,0,0,1,4.261-1.072h1.727v-.823a2.2,2.2,0,0,0-.545-1.559,2.16,2.16,0,0,0-1.658-.585,2.482,2.482,0,0,0-1.577.481,1.489,1.489,0,0,0-.614,1.223H35.41a3.127,3.127,0,0,1,.684-1.93,4.557,4.557,0,0,1,1.861-1.409,6.536,6.536,0,0,1,2.626-.51,5.264,5.264,0,0,1,3.513,1.107,3.948,3.948,0,0,1,1.345,3.113v5.658a6.412,6.412,0,0,0,.475,2.7v.2Zm-3.1-2.029a3.2,3.2,0,0,0,1.571-.406,2.711,2.711,0,0,0,1.107-1.09v-2.365H41.1a4.153,4.153,0,0,0-2.354.545,1.765,1.765,0,0,0-.788,1.542A1.646,1.646,0,0,0,38.5-7.8,2.088,2.088,0,0,0,39.943-7.319ZM51.92-20.883v3.049h2.214v2.087H51.92v7A1.542,1.542,0,0,0,52.2-7.707a1.317,1.317,0,0,0,1.014.319A4.34,4.34,0,0,0,54.2-7.5v2.18a6.939,6.939,0,0,1-1.855.267Q49.1-5.058,49.1-8.64v-7.107H47.039v-2.087H49.1v-3.049ZM61.809-5.058a5.829,5.829,0,0,1-4.342-1.687A6.119,6.119,0,0,1,55.8-11.237v-.348a7.527,7.527,0,0,1,.725-3.356,5.515,5.515,0,0,1,2.035-2.3,5.379,5.379,0,0,1,2.922-.823,4.924,4.924,0,0,1,3.959,1.635,6.912,6.912,0,0,1,1.4,4.626v1.136h-8.2a3.767,3.767,0,0,0,1.038,2.458,3.115,3.115,0,0,0,2.29.9,3.815,3.815,0,0,0,3.154-1.565l1.519,1.449a5.072,5.072,0,0,1-2.012,1.745A6.3,6.3,0,0,1,61.809-5.058Zm-.336-10.747a2.372,2.372,0,0,0-1.872.812,4.207,4.207,0,0,0-.91,2.261h5.368v-.209a3.424,3.424,0,0,0-.754-2.139A2.354,2.354,0,0,0,61.473-15.805ZM72.232-11.55V-5.29H69.3V-22.17h6.458A6.53,6.53,0,0,1,80.249-20.7a4.956,4.956,0,0,1,1.664,3.9,4.792,4.792,0,0,1-1.629,3.865,6.846,6.846,0,0,1-4.562,1.381Zm0-2.365h3.524a3.471,3.471,0,0,0,2.388-.736,2.706,2.706,0,0,0,.823-2.127,2.919,2.919,0,0,0-.835-2.185,3.218,3.218,0,0,0-2.3-.841H72.232ZM87.2-5.29H84.382V-17.834H87.2Zm-2.991-15.8a1.5,1.5,0,0,1,.412-1.078A1.555,1.555,0,0,1,85.8-22.6a1.574,1.574,0,0,1,1.183.429,1.484,1.484,0,0,1,.417,1.078,1.449,1.449,0,0,1-.417,1.061,1.587,1.587,0,0,1-1.183.423,1.567,1.567,0,0,1-1.177-.423A1.46,1.46,0,0,1,84.208-21.092ZM95.79-5.058a5.829,5.829,0,0,1-4.342-1.687,6.119,6.119,0,0,1-1.664-4.493v-.348a7.527,7.527,0,0,1,.725-3.356,5.515,5.515,0,0,1,2.035-2.3,5.379,5.379,0,0,1,2.922-.823,4.924,4.924,0,0,1,3.959,1.635,6.912,6.912,0,0,1,1.4,4.626v1.136h-8.2a3.767,3.767,0,0,0,1.038,2.458,3.115,3.115,0,0,0,2.29.9,3.815,3.815,0,0,0,3.154-1.565l1.519,1.449a5.072,5.072,0,0,1-2.012,1.745A6.3,6.3,0,0,1,95.79-5.058Zm-.336-10.747a2.372,2.372,0,0,0-1.872.812,4.206,4.206,0,0,0-.91,2.261H98.04v-.209a3.424,3.424,0,0,0-.754-2.139A2.354,2.354,0,0,0,95.454-15.805Z" transform="translate(148.668 72.069)" fill="#0f264d"/>
    <text id="As_Easy_As_Pie" data-name="As Easy As Pie" transform="translate(150.908 83.891)" fill="#0f264d" font-size="11" font-family="Roboto-Regular, Roboto"><tspan x="0" y="0">As Easy As Pie</tspan></text>
  </g>
</svg>
