<svg xmlns="http://www.w3.org/2000/svg" width="46" height="46" viewBox="0 0 46 46">
  <g id="Group_43" data-name="Group 43" transform="translate(-278 -2618)">
    <g id="Ellipse_3" data-name="Ellipse 3" transform="translate(278 2618)" fill="rgba(255,255,255,0)" stroke="#fff" stroke-width="1">
      <circle cx="23" cy="23" r="23" stroke="none"/>
      <circle cx="23" cy="23" r="22.5" fill="none"/>
    </g>
    <path id="Icon_awesome-pinterest-p" data-name="Icon awesome-pinterest-p" d="M9.525.457C4.734.457,0,3.651,0,8.819c0,3.287,1.849,5.154,2.969,5.154.462,0,.728-1.289.728-1.653,0-.434-1.107-1.359-1.107-3.166A6.31,6.31,0,0,1,9.146,2.74c3.18,0,5.533,1.807,5.533,5.126,0,2.479-.994,7.129-4.216,7.129a2.073,2.073,0,0,1-2.157-2.045c0-1.765,1.233-3.474,1.233-5.295,0-3.091-4.384-2.531-4.384,1.2A5.485,5.485,0,0,0,5.6,11.228C4.958,14,3.642,18.134,3.642,20.991c0,.882.126,1.751.21,2.633.159.177.079.159.322.07,2.353-3.222,2.269-3.852,3.334-8.068a3.787,3.787,0,0,0,3.236,1.681c4.958,0,7.185-4.832,7.185-9.188C17.929,3.482,13.923.457,9.525.457Z" transform="translate(292.036 2628.892)" fill="#fff"/>
  </g>
</svg>
