<svg xmlns="http://www.w3.org/2000/svg" width="46" height="46" viewBox="0 0 46 46">
  <g id="Group_277" data-name="Group 277" transform="translate(-146 -4598.909)">
    <g id="Ellipse_1" data-name="Ellipse 1" transform="translate(146 4598.909)" fill="rgba(255,255,255,0)" stroke="#fff" stroke-width="1">
      <circle cx="23" cy="23" r="23" stroke="none"/>
      <circle cx="23" cy="23" r="22.5" fill="none"/>
    </g>
    <path id="Path_9516" data-name="Path 9516" d="M257,329.116a9.38,9.38,0,0,1-2.6.712,4.481,4.481,0,0,0,1.984-2.492,9.024,9.024,0,0,1-2.86,1.091,4.51,4.51,0,0,0-7.8,3.084,4.659,4.659,0,0,0,.1,1.029,12.764,12.764,0,0,1-9.3-4.718,4.51,4.51,0,0,0,1.386,6.028,4.46,4.46,0,0,1-2.038-.555v.049a4.531,4.531,0,0,0,3.614,4.432,4.527,4.527,0,0,1-1.183.148,3.958,3.958,0,0,1-.854-.077,4.552,4.552,0,0,0,4.215,3.142,9.061,9.061,0,0,1-5.593,1.924,8.526,8.526,0,0,1-1.079-.062,12.837,12.837,0,0,0,19.756-10.81c0-.2-.007-.392-.016-.583A9.007,9.007,0,0,0,257,329.116Z" transform="translate(-77 4285.971)" fill="#fff"/>
  </g>
</svg>
